<svg xmlns="http://www.w3.org/2000/svg" version="1.1" xmlns:xlink="http://www.w3.org/1999/xlink" xmlns:svgjs="http://svgjs.dev/svgjs" width="1000" height="590" viewBox="0 0 1000 590"><g transform="matrix(1,0,0,1,-0.6060606060606233,0.5263975434946815)"><svg viewBox="0 0 396 234" data-background-color="#134fa9" preserveAspectRatio="xMidYMid meet" height="590" width="1000" xmlns="http://www.w3.org/2000/svg" xmlns:xlink="http://www.w3.org/1999/xlink"><g id="tight-bounds" transform="matrix(1,0,0,1,0.2400000000000091,-0.20877461894535543)"><svg viewBox="0 0 395.52 234.4175492378907" height="234.4175492378907" width="395.52"><g><svg viewBox="0 0 397.4975999999999 235.58963698408013" height="234.4175492378907" width="395.52"><g><svg viewBox="0 0 397.4975999999999 235.58963698408013" height="235.58963698408013" width="397.4975999999999"><g><svg viewBox="0 0 397.4975999999999 235.58963698408013" height="235.58963698408013" width="397.4975999999999"><g><rect width="397.4975999999999" height="14.96674113764894" x="0" y="183.59427189759998" fill="#ffcf00" opacity="1" stroke-width="0" stroke="transparent" fill-opacity="1" class="rect-in-0" data-fill-palette-color="primary" rx="1%" id="in-0" data-palette-color="#ffcf00"></rect></g><g transform="matrix(1,0,0,1,0.9887999999999693,0)"><svg viewBox="0 0 395.52 165.96329411764705" height="165.96329411764705" width="395.52"><g transform="matrix(1,0,0,1,0,0)"><svg width="395.52" viewBox="0.76 -36.06 87.14999999999999 36.57" height="165.96329411764705" data-palette-color="#ffcf00"><path d="M0.76-35.55L11.5 0 18.48 0 29.25-35.55 21.68-35.55 15.63-12.35 14.97-9.94 14.36-12.33 8.33-35.55 0.76-35.55ZM40.48-15.58L55.08-15.58 55.08-21 40.48-21 40.48-29.96 57.47-29.96 57.47-35.55 33.59-35.55 33.59 0 57.54 0 57.54-5.54 40.48-5.54 40.48-15.58ZM87.89-11.13L87.89-11.13 81.03-11.13Q80.93-9.52 80.49-8.37 80.05-7.23 79.29-6.49L79.29-6.49Q78.54-5.76 77.46-5.42 76.39-5.08 75.04-5.08L75.04-5.08Q74.04-5.08 73.22-5.31 72.41-5.54 71.75-6.03L71.75-6.03Q71.14-6.47 70.66-7.13 70.19-7.79 69.84-8.64L69.84-8.64Q69.36-9.89 69.12-11.56 68.89-13.23 68.89-15.36L68.89-15.36 68.89-20.19Q68.89-21.75 69.04-23.11 69.18-24.46 69.5-25.59L69.5-25.59Q69.92-27.03 70.61-28.11 71.31-29.2 72.31-29.79L72.31-29.79Q72.9-30.13 73.59-30.3 74.29-30.47 75.09-30.47L75.09-30.47Q76.61-30.47 77.69-30.07 78.78-29.66 79.51-28.88L79.51-28.88Q80.22-28.08 80.6-26.88 80.98-25.68 81.07-24.1L81.07-24.1 87.91-24.1Q87.67-26.88 86.74-29.1 85.81-31.32 84.2-32.86L84.2-32.86Q82.59-34.4 80.31-35.23 78.02-36.06 75.09-36.06L75.09-36.06Q73.12-36.06 71.39-35.56 69.67-35.06 68.23-34.13L68.23-34.13Q66.62-33.03 65.35-31.45 64.08-29.86 63.3-27.83L63.3-27.83Q62.62-26.17 62.28-24.23 61.93-22.29 61.93-20.14L61.93-20.14 61.93-15.36Q61.93-13.06 62.31-11.01 62.69-8.96 63.4-7.25L63.4-7.25Q64.13-5.54 65.19-4.13 66.25-2.71 67.62-1.71L67.62-1.71Q69.11-0.63 70.98-0.06 72.85 0.51 75.04 0.51L75.04 0.51Q77.83 0.51 80.12-0.31 82.42-1.12 84.08-2.64L84.08-2.64Q85.74-4.15 86.73-6.3 87.71-8.45 87.89-11.13Z" opacity="1" transform="matrix(1,0,0,1,0,0)" fill="#ffcf00" class="undefined-text-0" data-fill-palette-color="primary" id="text-0"></path></svg></g></svg></g><g transform="matrix(1,0,0,1,0,216.19199081520185)"><svg viewBox="0 0 395.52 19.397646168878243" height="19.397646168878243" width="395.52"><g transform="matrix(1,0,0,1,0,0)"><svg width="395.52" viewBox="1.73 -37.5 774.53 37.99" height="19.397646168878243" data-palette-color="#ffcf00"><path d="M1.73-35.55L12.96 0 16.89 0 28.1-35.55 23.29-35.55 15.43-9.06 14.89-7.28 14.38-9.01 6.57-35.55 1.73-35.55ZM48.46-26.42L34.96-26.42 34.96-22.49 43.94-22.49 43.94-3.91 34.96-3.91 34.96 0 57.08 0 57.08-3.91 48.46-3.91 48.46-26.42ZM43.36-33.35L43.36-33.35Q43.36-32.25 44.03-31.52 44.7-30.79 46.07-30.79L46.07-30.79Q47.41-30.79 48.09-31.52 48.78-32.25 48.78-33.35L48.78-33.35Q48.78-33.96 48.58-34.47 48.39-34.99 48-35.33L48-35.33Q47.68-35.64 47.19-35.83 46.7-36.01 46.07-36.01L46.07-36.01Q45.43-36.01 44.93-35.83 44.43-35.64 44.11-35.33L44.11-35.33Q43.72-34.96 43.54-34.45 43.36-33.94 43.36-33.35ZM81.56-26.9L81.56-26.9Q78.68-26.9 76.42-25.65 74.16-24.39 72.55-22.22L72.55-22.22 72.53-22.88 72.33-26.42 68.04-26.42 68.04 0 72.58 0 72.58-16.94Q73.02-18.16 73.69-19.15 74.36-20.14 75.26-20.83L75.26-20.83Q76.26-21.61 77.61-22.01 78.95-22.41 80.61-22.41L80.61-22.41Q81.9-22.41 83.09-22.28 84.27-22.14 85.59-21.85L85.59-21.85 86.2-26.27Q85.52-26.56 84.16-26.73 82.81-26.9 81.56-26.9ZM104.95-26.42L104.95-32.81 100.41-32.81 100.41-26.42 93.47-26.42 93.47-22.92 100.41-22.92 100.41-8.57Q100.41-6.13 101.05-4.41 101.7-2.69 102.82-1.61L102.82-1.61Q103.95-0.51 105.47-0.01 107 0.49 108.76 0.49L108.76 0.49Q109.81 0.49 110.87 0.39 111.93 0.29 112.88 0.1L112.88 0.1Q113.84-0.07 114.64-0.33 115.45-0.59 116.01-0.93L116.01-0.93 115.37-4.13Q114.96-4.03 114.31-3.89 113.66-3.76 112.93-3.64L112.93-3.64Q112.18-3.52 111.39-3.43 110.61-3.34 109.88-3.34L109.88-3.34Q108.88-3.34 107.99-3.59 107.1-3.83 106.41-4.44L106.41-4.44Q105.73-5.03 105.34-6.03 104.95-7.03 104.95-8.57L104.95-8.57 104.95-22.92 115.01-22.92 115.01-26.42 104.95-26.42ZM141.4-3.64L141.66 0 145.77 0 145.77-26.42 141.23-26.42 141.23-7.47Q140.86-6.62 140.31-5.9 139.76-5.18 139.03-4.66L139.03-4.66Q138.15-4.03 136.95-3.67 135.76-3.32 134.24-3.32L134.24-3.32Q132.95-3.32 131.96-3.66 130.97-4 130.29-4.86L130.29-4.86Q129.6-5.69 129.26-7.1 128.92-8.52 128.92-10.67L128.92-10.67 128.92-26.42 124.4-26.42 124.4-10.72Q124.4-7.76 125.05-5.65 125.7-3.54 126.89-2.17L126.89-2.17Q128.09-0.81 129.78-0.16 131.46 0.49 133.53 0.49L133.53 0.49Q136.12 0.49 138.1-0.6 140.08-1.68 141.4-3.64L141.4-3.64ZM171.62 0L171.62 0 176.33 0 176.33-0.39Q175.89-1.49 175.65-2.97 175.4-4.44 175.4-5.76L175.4-5.76 175.4-18.04Q175.4-20.26 174.6-21.92 173.79-23.58 172.4-24.71L172.4-24.71Q170.98-25.81 169.05-26.35 167.13-26.9 164.88-26.9L164.88-26.9Q162.41-26.9 160.47-26.22 158.53-25.54 157.19-24.44L157.19-24.44Q155.82-23.32 155.1-21.92 154.38-20.53 154.36-19.09L154.36-19.09 158.9-19.09Q158.9-19.92 159.3-20.69 159.7-21.46 160.44-22.02L160.44-22.02Q161.17-22.58 162.23-22.92 163.29-23.27 164.64-23.27L164.64-23.27Q166.08-23.27 167.24-22.9 168.4-22.53 169.2-21.88L169.2-21.88Q170.01-21.19 170.45-20.24 170.89-19.29 170.89-18.09L170.89-18.09 170.89-16.02 165.95-16.02Q163.2-16.02 160.96-15.48 158.73-14.94 157.14-13.87L157.14-13.87Q155.55-12.77 154.69-11.13 153.82-9.5 153.82-7.32L153.82-7.32Q153.82-5.66 154.47-4.24 155.11-2.81 156.31-1.78L156.31-1.78Q157.48-0.73 159.18-0.12 160.88 0.49 162.98 0.49L162.98 0.49Q164.27 0.49 165.42 0.22 166.56-0.05 167.59-0.51L167.59-0.51Q168.59-0.98 169.43-1.59 170.28-2.2 170.96-2.88L170.96-2.88Q171.03-2.05 171.19-1.28 171.35-0.51 171.62 0ZM163.63-3.44L163.63-3.44Q162.32-3.44 161.32-3.78 160.31-4.13 159.66-4.74L159.66-4.74Q159-5.32 158.67-6.15 158.34-6.98 158.34-7.96L158.34-7.96Q158.34-8.98 158.72-9.79 159.09-10.6 159.83-11.18L159.83-11.18Q160.85-12.01 162.6-12.41 164.34-12.82 166.69-12.82L166.69-12.82 170.89-12.82 170.89-7.47Q170.5-6.69 169.81-5.97 169.13-5.25 168.2-4.69L168.2-4.69Q167.25-4.13 166.1-3.78 164.95-3.44 163.63-3.44ZM198.47-37.5L184.97-37.5 184.97-33.57 193.95-33.57 193.95-3.91 184.97-3.91 184.97 0 207.09 0 207.09-3.91 198.47-3.91 198.47-37.5ZM248.98-16.43L263.82-16.43 263.82-20.26 248.98-20.26 248.98-31.69 266.07-31.69 266.07-35.55 244.46-35.55 244.46 0 266.29 0 266.29-3.83 248.98-3.83 248.98-16.43ZM292.24-26.42L285.18-16.63 278.2-26.42 272.98-26.42 282.81-13.35 272.71 0 277.98 0 285.28-10.06 292.58 0 297.8 0 287.7-13.35 297.54-26.42 292.24-26.42ZM321.63 0L321.63 0 326.34 0 326.34-0.39Q325.9-1.49 325.66-2.97 325.41-4.44 325.41-5.76L325.41-5.76 325.41-18.04Q325.41-20.26 324.61-21.92 323.8-23.58 322.41-24.71L322.41-24.71Q321-25.81 319.07-26.35 317.14-26.9 314.89-26.9L314.89-26.9Q312.43-26.9 310.49-26.22 308.54-25.54 307.2-24.44L307.2-24.44Q305.83-23.32 305.11-21.92 304.39-20.53 304.37-19.09L304.37-19.09 308.91-19.09Q308.91-19.92 309.31-20.69 309.72-21.46 310.45-22.02L310.45-22.02Q311.18-22.58 312.24-22.92 313.31-23.27 314.65-23.27L314.65-23.27Q316.09-23.27 317.25-22.9 318.41-22.53 319.21-21.88L319.21-21.88Q320.02-21.19 320.46-20.24 320.9-19.29 320.9-18.09L320.9-18.09 320.9-16.02 315.97-16.02Q313.21-16.02 310.97-15.48 308.74-14.94 307.15-13.87L307.15-13.87Q305.57-12.77 304.7-11.13 303.83-9.5 303.83-7.32L303.83-7.32Q303.83-5.66 304.48-4.24 305.13-2.81 306.32-1.78L306.32-1.78Q307.49-0.73 309.19-0.12 310.89 0.49 312.99 0.49L312.99 0.49Q314.28 0.49 315.43 0.22 316.58-0.05 317.6-0.51L317.6-0.51Q318.6-0.98 319.45-1.59 320.29-2.2 320.97-2.88L320.97-2.88Q321.04-2.05 321.2-1.28 321.36-0.51 321.63 0ZM313.65-3.44L313.65-3.44Q312.33-3.44 311.33-3.78 310.33-4.13 309.67-4.74L309.67-4.74Q309.01-5.32 308.68-6.15 308.35-6.98 308.35-7.96L308.35-7.96Q308.35-8.98 308.73-9.79 309.11-10.6 309.84-11.18L309.84-11.18Q310.86-12.01 312.61-12.41 314.35-12.82 316.7-12.82L316.7-12.82 320.9-12.82 320.9-7.47Q320.51-6.69 319.82-5.97 319.14-5.25 318.21-4.69L318.21-4.69Q317.26-4.13 316.11-3.78 314.97-3.44 313.65-3.44ZM336.47-23.93L336.35-26.42 332.3-26.42 332.3 0 336.59 0 336.59-21.02Q336.74-21.41 336.97-21.75 337.2-22.09 337.52-22.36L337.52-22.36Q337.94-22.71 338.53-22.89 339.13-23.07 339.94-23.07L339.94-23.07Q340.67-23.07 341.22-22.89 341.77-22.71 342.14-22.31L342.14-22.31Q342.53-21.9 342.71-21.26 342.89-20.63 342.89-19.8L342.89-19.8 342.89 0 347.19 0 347.19-19.78Q347.19-19.92 347.19-20.03 347.19-20.14 347.19-20.26L347.19-20.26Q347.26-20.87 347.48-21.37 347.7-21.88 348.09-22.27L348.09-22.27Q348.48-22.63 349.07-22.85 349.66-23.07 350.46-23.07L350.46-23.07Q351.22-23.07 351.79-22.88 352.37-22.68 352.76-22.29L352.76-22.29Q353.12-21.88 353.32-21.24 353.51-20.61 353.51-19.78L353.51-19.78 353.51 0 357.81 0 357.81-19.73Q357.81-21.63 357.37-23.03 356.93-24.44 356.1-25.32L356.1-25.32Q355.34-26.1 354.24-26.5 353.15-26.9 351.78-26.9L351.78-26.9Q350.78-26.88 349.94-26.64 349.09-26.39 348.41-25.98L348.41-25.98Q347.87-25.61 347.41-25.12 346.95-24.63 346.6-24.07L346.6-24.07Q346.33-24.68 345.96-25.17 345.58-25.66 345.11-26L345.11-26Q344.48-26.44 343.64-26.67 342.79-26.9 341.74-26.9L341.74-26.9Q339.89-26.88 338.58-26.1 337.28-25.32 336.47-23.93L336.47-23.93ZM378.49-26.42L364.98-26.42 364.98-22.49 373.97-22.49 373.97-3.91 364.98-3.91 364.98 0 387.1 0 387.1-3.91 378.49-3.91 378.49-26.42ZM373.38-33.35L373.38-33.35Q373.38-32.25 374.05-31.52 374.73-30.79 376.09-30.79L376.09-30.79Q377.44-30.79 378.12-31.52 378.8-32.25 378.8-33.35L378.8-33.35Q378.8-33.96 378.61-34.47 378.41-34.99 378.02-35.33L378.02-35.33Q377.7-35.64 377.22-35.83 376.73-36.01 376.09-36.01L376.09-36.01Q375.46-36.01 374.96-35.83 374.46-35.64 374.14-35.33L374.14-35.33Q373.75-34.96 373.57-34.45 373.38-33.94 373.38-33.35ZM394.28-26.42L394.28 0 398.8 0 398.8-18.95Q399.26-19.8 399.88-20.51 400.5-21.22 401.24-21.75L401.24-21.75Q402.14-22.36 403.21-22.72 404.29-23.07 405.53-23.07L405.53-23.07Q406.97-23.07 408.09-22.73 409.2-22.39 409.98-21.63L409.98-21.63Q410.73-20.87 411.12-19.65 411.52-18.43 411.52-16.67L411.52-16.67 411.52 0 416.03 0 416.03-16.77Q416.03-19.41 415.38-21.33 414.74-23.24 413.54-24.49L413.54-24.49Q412.35-25.73 410.65-26.32 408.95-26.9 406.88-26.9L406.88-26.9Q405.34-26.88 403.96-26.45 402.58-26.03 401.41-25.24L401.41-25.24Q400.63-24.73 399.93-24.04 399.24-23.34 398.65-22.51L398.65-22.51 398.33-26.42 394.28-26.42ZM441.64 0L441.64 0 446.35 0 446.35-0.39Q445.91-1.49 445.67-2.97 445.42-4.44 445.42-5.76L445.42-5.76 445.42-18.04Q445.42-20.26 444.62-21.92 443.81-23.58 442.42-24.71L442.42-24.71Q441.01-25.81 439.08-26.35 437.15-26.9 434.9-26.9L434.9-26.9Q432.44-26.9 430.49-26.22 428.55-25.54 427.21-24.44L427.21-24.44Q425.84-23.32 425.12-21.92 424.4-20.53 424.38-19.09L424.38-19.09 428.92-19.09Q428.92-19.92 429.32-20.69 429.73-21.46 430.46-22.02L430.46-22.02Q431.19-22.58 432.25-22.92 433.31-23.27 434.66-23.27L434.66-23.27Q436.1-23.27 437.26-22.9 438.42-22.53 439.22-21.88L439.22-21.88Q440.03-21.19 440.47-20.24 440.91-19.29 440.91-18.09L440.91-18.09 440.91-16.02 435.98-16.02Q433.22-16.02 430.98-15.48 428.75-14.94 427.16-13.87L427.16-13.87Q425.58-12.77 424.71-11.13 423.84-9.5 423.84-7.32L423.84-7.32Q423.84-5.66 424.49-4.24 425.14-2.81 426.33-1.78L426.33-1.78Q427.5-0.73 429.2-0.12 430.9 0.49 433 0.49L433 0.49Q434.29 0.49 435.44 0.22 436.59-0.05 437.61-0.51L437.61-0.51Q438.61-0.98 439.45-1.59 440.3-2.2 440.98-2.88L440.98-2.88Q441.05-2.05 441.21-1.28 441.37-0.51 441.64 0ZM433.66-3.44L433.66-3.44Q432.34-3.44 431.34-3.78 430.34-4.13 429.68-4.74L429.68-4.74Q429.02-5.32 428.69-6.15 428.36-6.98 428.36-7.96L428.36-7.96Q428.36-8.98 428.74-9.79 429.12-10.6 429.85-11.18L429.85-11.18Q430.87-12.01 432.62-12.41 434.36-12.82 436.71-12.82L436.71-12.82 440.91-12.82 440.91-7.47Q440.52-6.69 439.83-5.97 439.15-5.25 438.22-4.69L438.22-4.69Q437.27-4.13 436.12-3.78 434.97-3.44 433.66-3.44ZM464.98-26.42L464.98-32.81 460.44-32.81 460.44-26.42 453.5-26.42 453.5-22.92 460.44-22.92 460.44-8.57Q460.44-6.13 461.08-4.41 461.73-2.69 462.85-1.61L462.85-1.61Q463.98-0.51 465.5-0.01 467.03 0.49 468.79 0.49L468.79 0.49Q469.84 0.49 470.9 0.39 471.96 0.29 472.91 0.1L472.91 0.1Q473.86-0.07 474.67-0.33 475.48-0.59 476.04-0.93L476.04-0.93 475.4-4.13Q474.99-4.03 474.34-3.89 473.69-3.76 472.96-3.64L472.96-3.64Q472.2-3.52 471.42-3.43 470.64-3.34 469.91-3.34L469.91-3.34Q468.91-3.34 468.02-3.59 467.13-3.83 466.44-4.44L466.44-4.44Q465.76-5.03 465.37-6.03 464.98-7.03 464.98-8.57L464.98-8.57 464.98-22.92 475.04-22.92 475.04-26.42 464.98-26.42ZM498.5-26.42L484.99-26.42 484.99-22.49 493.98-22.49 493.98-3.91 484.99-3.91 484.99 0 507.11 0 507.11-3.91 498.5-3.91 498.5-26.42ZM493.39-33.35L493.39-33.35Q493.39-32.25 494.06-31.52 494.74-30.79 496.1-30.79L496.1-30.79Q497.45-30.79 498.13-31.52 498.81-32.25 498.81-33.35L498.81-33.35Q498.81-33.96 498.62-34.47 498.42-34.99 498.03-35.33L498.03-35.33Q497.71-35.64 497.23-35.83 496.74-36.01 496.1-36.01L496.1-36.01Q495.47-36.01 494.97-35.83 494.47-35.64 494.15-35.33L494.15-35.33Q493.76-34.96 493.58-34.45 493.39-33.94 493.39-33.35ZM513.02-13.45L513.02-13.45 513.02-12.92Q513.02-10.06 513.85-7.62 514.68-5.18 516.24-3.37L516.24-3.37Q517.78-1.56 520.01-0.54 522.25 0.49 525.06 0.49L525.06 0.49Q527.84 0.49 530.06-0.54 532.28-1.56 533.84-3.37L533.84-3.37Q535.38-5.18 536.21-7.62 537.04-10.06 537.04-12.92L537.04-12.92 537.04-13.45Q537.04-16.31 536.21-18.76 535.38-21.22 533.84-23.02L533.84-23.02Q532.28-24.83 530.05-25.87 527.81-26.9 525.01-26.9L525.01-26.9Q522.22-26.9 520-25.87 517.78-24.83 516.24-23.02L516.24-23.02Q514.68-21.22 513.85-18.76 513.02-16.31 513.02-13.45ZM517.54-12.92L517.54-12.92 517.54-13.45Q517.54-15.38 518-17.15 518.46-18.92 519.42-20.26L519.42-20.26Q520.34-21.61 521.73-22.4 523.13-23.19 525.01-23.19L525.01-23.19Q526.89-23.19 528.29-22.4 529.69-21.61 530.65-20.26L530.65-20.26Q531.57-18.92 532.05-17.15 532.53-15.38 532.53-13.45L532.53-13.45 532.53-12.92Q532.53-10.96 532.06-9.19 531.6-7.42 530.67-6.08L530.67-6.08Q529.72-4.74 528.31-3.96 526.91-3.17 525.06-3.17L525.06-3.17Q523.18-3.17 521.76-3.96 520.34-4.74 519.42-6.08L519.42-6.08Q518.46-7.42 518-9.19 517.54-10.96 517.54-12.92ZM544.29-26.42L544.29 0 548.81 0 548.81-18.95Q549.27-19.8 549.89-20.51 550.52-21.22 551.25-21.75L551.25-21.75Q552.15-22.36 553.23-22.72 554.3-23.07 555.55-23.07L555.55-23.07Q556.99-23.07 558.1-22.73 559.21-22.39 559.99-21.63L559.99-21.63Q560.75-20.87 561.14-19.65 561.53-18.43 561.53-16.67L561.53-16.67 561.53 0 566.04 0 566.04-16.77Q566.04-19.41 565.4-21.33 564.75-23.24 563.55-24.49L563.55-24.49Q562.36-25.73 560.66-26.32 558.96-26.9 556.89-26.9L556.89-26.9Q555.35-26.88 553.97-26.45 552.59-26.03 551.42-25.24L551.42-25.24Q550.64-24.73 549.94-24.04 549.25-23.34 548.66-22.51L548.66-22.51 548.34-26.42 544.29-26.42ZM627.32-10.69L627.32-10.69 622.8-10.69Q622.58-9.08 622.04-7.7 621.51-6.32 620.6-5.32L620.6-5.32Q619.7-4.3 618.39-3.74 617.09-3.17 615.31-3.17L615.31-3.17Q613.67-3.17 612.45-3.7 611.23-4.22 610.33-5.15L610.33-5.15Q609.42-6.05 608.84-7.25 608.25-8.45 607.88-9.81L607.88-9.81Q607.52-11.16 607.36-12.56 607.2-13.96 607.2-15.28L607.2-15.28 607.2-20.29Q607.2-21.61 607.36-23.01 607.52-24.41 607.88-25.76L607.88-25.76Q608.25-27.1 608.85-28.3 609.45-29.49 610.35-30.4L610.35-30.4Q611.23-31.3 612.46-31.82 613.7-32.35 615.31-32.35L615.31-32.35Q617.09-32.35 618.39-31.75 619.7-31.15 620.6-30.1L620.6-30.1Q621.51-29.05 622.04-27.66 622.58-26.27 622.8-24.66L622.8-24.66 627.32-24.66Q627.03-27.2 626.11-29.3 625.19-31.4 623.68-32.91L623.68-32.91Q622.17-34.4 620.07-35.22 617.97-36.04 615.31-36.04L615.31-36.04Q613.08-36.04 611.3-35.41 609.52-34.79 608.13-33.69L608.13-33.69Q606.71-32.59 605.7-31.09 604.69-29.59 604.03-27.83L604.03-27.83Q603.34-26.07 603.01-24.15 602.68-22.22 602.66-20.24L602.66-20.24 602.66-15.28Q602.68-13.31 603.01-11.38 603.34-9.45 604.03-7.69L604.03-7.69Q604.69-5.93 605.7-4.44 606.71-2.95 608.13-1.86L608.13-1.86Q609.52-0.76 611.31-0.13 613.11 0.49 615.31 0.49L615.31 0.49Q617.87 0.49 619.96-0.33 622.04-1.15 623.58-2.64L623.58-2.64Q625.1-4.1 626.05-6.16 627-8.23 627.32-10.69ZM645.97 0.49L645.97 0.49Q649.83 0.49 652.45-1.06 655.07-2.61 656.39-4.61L656.39-4.61 653.63-6.76Q652.39-5.15 650.51-4.17 648.63-3.2 646.21-3.2L646.21-3.2Q644.38-3.2 642.87-3.88 641.35-4.57 640.28-5.76L640.28-5.76Q639.23-6.88 638.63-8.35 638.03-9.81 637.86-11.74L637.86-11.74 637.86-11.91 656.73-11.91 656.73-13.94Q656.73-16.7 656.04-19.07 655.34-21.44 653.93-23.19L653.93-23.19Q652.51-24.93 650.37-25.92 648.24-26.9 645.38-26.9L645.38-26.9Q643.11-26.9 640.95-25.98 638.79-25.05 637.11-23.32L637.11-23.32Q635.4-21.56 634.37-19.03 633.35-16.5 633.35-13.31L633.35-13.31 633.35-12.28Q633.35-9.52 634.27-7.18 635.2-4.83 636.86-3.13L636.86-3.13Q638.52-1.42 640.85-0.46 643.18 0.49 645.97 0.49ZM645.38-23.19L645.38-23.19Q647.12-23.19 648.37-22.56 649.63-21.92 650.46-20.9L650.46-20.9Q651.29-19.87 651.75-18.47 652.22-17.07 652.22-15.84L652.22-15.84 652.22-15.63 638.01-15.63Q638.28-17.46 638.95-18.86 639.62-20.26 640.6-21.24L640.6-21.24Q641.57-22.19 642.79-22.69 644.01-23.19 645.38-23.19ZM664.3-26.42L664.3 0 668.82 0 668.82-18.95Q669.28-19.8 669.9-20.51 670.53-21.22 671.26-21.75L671.26-21.75Q672.16-22.36 673.24-22.72 674.31-23.07 675.56-23.07L675.56-23.07Q677-23.07 678.11-22.73 679.22-22.39 680-21.63L680-21.63Q680.76-20.87 681.15-19.65 681.54-18.43 681.54-16.67L681.54-16.67 681.54 0 686.05 0 686.05-16.77Q686.05-19.41 685.41-21.33 684.76-23.24 683.56-24.49L683.56-24.49Q682.37-25.73 680.67-26.32 678.97-26.9 676.9-26.9L676.9-26.9Q675.36-26.88 673.98-26.45 672.6-26.03 671.43-25.24L671.43-25.24Q670.65-24.73 669.95-24.04 669.26-23.34 668.67-22.51L668.67-22.51 668.35-26.42 664.3-26.42ZM705-26.42L705-32.81 700.46-32.81 700.46-26.42 693.52-26.42 693.52-22.92 700.46-22.92 700.46-8.57Q700.46-6.13 701.1-4.41 701.75-2.69 702.87-1.61L702.87-1.61Q704-0.51 705.52-0.01 707.05 0.49 708.8 0.49L708.8 0.49Q709.85 0.49 710.92 0.39 711.98 0.29 712.93 0.1L712.93 0.1Q713.88-0.07 714.69-0.33 715.49-0.59 716.06-0.93L716.06-0.93 715.42-4.13Q715.01-4.03 714.36-3.89 713.71-3.76 712.98-3.64L712.98-3.64Q712.22-3.52 711.44-3.43 710.66-3.34 709.93-3.34L709.93-3.34Q708.93-3.34 708.04-3.59 707.14-3.83 706.46-4.44L706.46-4.44Q705.78-5.03 705.39-6.03 705-7.03 705-8.57L705-8.57 705-22.92 715.05-22.92 715.05-26.42 705-26.42ZM735.98 0.49L735.98 0.49Q739.83 0.49 742.46-1.06 745.08-2.61 746.4-4.61L746.4-4.61 743.64-6.76Q742.4-5.15 740.52-4.17 738.64-3.2 736.22-3.2L736.22-3.2Q734.39-3.2 732.87-3.88 731.36-4.57 730.29-5.76L730.29-5.76Q729.24-6.88 728.64-8.35 728.04-9.81 727.87-11.74L727.87-11.74 727.87-11.91 746.74-11.91 746.74-13.94Q746.74-16.7 746.05-19.07 745.35-21.44 743.93-23.19L743.93-23.19Q742.52-24.93 740.38-25.92 738.25-26.9 735.39-26.9L735.39-26.9Q733.12-26.9 730.96-25.98 728.8-25.05 727.11-23.32L727.11-23.32Q725.4-21.56 724.38-19.03 723.35-16.5 723.35-13.31L723.35-13.31 723.35-12.28Q723.35-9.52 724.28-7.18 725.21-4.83 726.87-3.13L726.87-3.13Q728.53-1.42 730.86-0.46 733.19 0.49 735.98 0.49ZM735.39-23.19L735.39-23.19Q737.12-23.19 738.38-22.56 739.64-21.92 740.47-20.9L740.47-20.9Q741.3-19.87 741.76-18.47 742.23-17.07 742.23-15.84L742.23-15.84 742.23-15.63 728.02-15.63Q728.28-17.46 728.96-18.86 729.63-20.26 730.6-21.24L730.6-21.24Q731.58-22.19 732.8-22.69 734.02-23.19 735.39-23.19ZM771.62-26.9L771.62-26.9Q768.74-26.9 766.48-25.65 764.22-24.39 762.61-22.22L762.61-22.22 762.58-22.88 762.39-26.42 758.09-26.42 758.09 0 762.63 0 762.63-16.94Q763.07-18.16 763.74-19.15 764.42-20.14 765.32-20.83L765.32-20.83Q766.32-21.61 767.66-22.01 769-22.41 770.67-22.41L770.67-22.41Q771.96-22.41 773.14-22.28 774.33-22.14 775.65-21.85L775.65-21.85 776.26-26.27Q775.57-26.56 774.22-26.73 772.86-26.9 771.62-26.9Z" opacity="1" transform="matrix(1,0,0,1,0,0)" fill="#ffcf00" class="undefined-text-1" data-fill-palette-color="secondary" id="text-1"></path></svg></g></svg></g></svg></g></svg></g></svg></g><defs></defs></svg><rect width="395.52" height="234.4175492378907" fill="none" stroke="none" visibility="hidden"></rect></g></svg></g></svg>